<svg
  width="320"
  height="320"
  viewBox="0 0 320 320"
  fill="none"
  xmlns="http://www.w3.org/2000/svg"
>
  <rect width="320" height="320" rx="64" fill="url(#paint0_linear_50_2)" />
  <circle cx="255" cy="62" r="54" fill="url(#paint1_radial_50_2)" />
  <circle cx="160" cy="124" r="56" fill="#F1C6A4" />
  <path
    d="M101 111C106.333 73.6667 127.333 55 164 55C200.667 55 221.333 75.6667 226 117C215.6 102.6 201 95.4 182 95.4H145.4C128.067 95.4 113.267 100.6 101 111Z"
    fill="#0C2230"
  />
  <path
    d="M106 237C117.6 199.667 136 181 161.2 181C186.4 181 204.933 199.667 216.8 237L227 271H95L106 237Z"
    fill="#F6F8FB"
  />
  <path
    d="M131 231.5C140.6 217.833 150.267 211 160 211C169.733 211 179.4 217.833 189 231.5V271H131V231.5Z"
    fill="#1D7FE5"
  />
  <path
    d="M129 211C136.333 222.333 146.667 228 160 228C173.333 228 183.667 222.333 191 211"
    stroke="#0C2230"
    stroke-width="8"
    stroke-linecap="round"
  />
  <path
    d="M139 143C144.333 147.667 151 150 159 150C167 150 173.667 147.667 179 143"
    stroke="#9C5B37"
    stroke-width="7"
    stroke-linecap="round"
  />
  <circle cx="142" cy="127" r="6" fill="#0C2230" />
  <circle cx="178" cy="127" r="6" fill="#0C2230" />
  <path
    d="M80 255C115.333 222.333 148.667 206 180 206C211.333 206 244.667 222.333 280 255"
    stroke="rgba(255,255,255,0.45)"
    stroke-width="10"
    stroke-linecap="round"
  />
  <defs>
    <linearGradient
      id="paint0_linear_50_2"
      x1="28"
      y1="26"
      x2="288"
      y2="292"
      gradientUnits="userSpaceOnUse"
    >
      <stop stop-color="#0F2238" />
      <stop offset="0.52" stop-color="#1D7FE5" />
      <stop offset="1" stop-color="#55D489" />
    </linearGradient>
    <radialGradient
      id="paint1_radial_50_2"
      cx="0"
      cy="0"
      r="1"
      gradientUnits="userSpaceOnUse"
      gradientTransform="translate(255 62) rotate(90) scale(54)"
    >
      <stop stop-color="white" stop-opacity="0.58" />
      <stop offset="1" stop-color="white" stop-opacity="0" />
    </radialGradient>
  </defs>
</svg>
